<?xml version="1.0" encoding="UTF-8" standalone="no"?>
<svg width="12px" height="16px" viewBox="0 0 12 16" version="1.1" xmlns="http://www.w3.org/2000/svg" xmlns:xlink="http://www.w3.org/1999/xlink" xmlns:sketch="http://www.bohemiancoding.com/sketch/ns">
    <!-- Generator: Sketch 3.3.3 (12081) - http://www.bohemiancoding.com/sketch -->
    <title>Fill 190</title>
    <desc>Created with Sketch.</desc>
    <defs></defs>
    <g id="Page-1" stroke="none" stroke-width="1" fill="none" fill-rule="evenodd" sketch:type="MSPage">
        <g id="Desktop" sketch:type="MSArtboardGroup" transform="translate(-29.000000, -23.000000)" fill="#FFFFFF">
            <path d="M37.1920668,38.3075331 L32.8079332,38.3075331 L33.7473904,37.7438587 L33.7473904,33.9104558 C33.3795407,34.1613953 32.9620042,34.2862387 32.4947808,34.2862387 C31.8768267,34.2862387 31.348643,34.067032 30.9102296,33.6290362 C30.4718163,33.1902053 30.2526096,32.6628566 30.2526096,32.044485 C30.2526096,31.8611865 30.2693111,31.7021051 30.302714,31.5680759 C29.9102296,31.393128 29.5949896,31.1213118 29.3569937,30.7542971 C29.1189979,30.3864475 29,29.9822721 29,29.5392658 C29,28.9213118 29.2192067,28.3927105 29.65762,27.9547147 C30.0960334,27.5158838 30.6242171,27.2966771 31.2421712,27.2966771 C31.3173278,27.2966771 31.4133612,27.3054454 31.5302714,27.3221468 C31.5302714,27.2966771 31.526096,27.2511656 31.5177453,27.1839422 C31.5093946,27.1171364 31.5052192,27.0674495 31.5052192,27.0340466 C31.5052192,26.0653619 31.845929,25.2407272 32.5265136,24.5597251 C33.2066806,23.8795581 34.0313152,23.5388483 35,23.5388483 C35.7849687,23.5388483 36.4843424,23.775174 37.0985386,24.2465727 C37.7118998,24.7188065 38.1277662,25.3263222 38.3444676,26.0695372 C39.0876827,26.1192241 39.7160752,26.4181802 40.2300626,26.9647356 C40.743215,27.512126 41,28.1609777 41,28.912961 C41,29.4219381 40.8768267,29.8899965 40.6304802,30.3154662 C40.3841336,30.7413535 40.0521921,31.0879088 39.6346555,31.3555498 C39.7098121,31.6140049 39.7473904,31.8440675 39.7473904,32.044485 C39.7473904,32.6628566 39.5286013,33.1902053 39.0897704,33.6290362 C38.651357,34.067032 38.1235908,34.2862387 37.5052192,34.2862387 C37.0542797,34.2862387 36.6367432,34.1613953 36.2526096,33.9104558 L36.2526096,37.7438587 L37.1920668,38.3075331" id="Fill-190" sketch:type="MSShapeGroup"></path>
        </g>
    </g>
</svg>